<?xml version="1.0" standalone="no"?>
<!DOCTYPE svg PUBLIC "-//W3C//DTD SVG 1.1//EN" "http://www.w3.org/Graphics/SVG/1.1/DTD/svg11.dtd">
<svg xmlns="http://www.w3.org/2000/svg" id="Layer_1" data-name="Layer 1" viewBox="0 0 168.14 107.06" width="168.13999938964844" height="107.05999755859375">
  <defs>
    <style>
      .cls-1 {
        fill: #fff;
      }

      .cls-2 {
        fill: #609669;
      }
    </style>
  </defs>
  <path class="cls-2" d="M167.72,46.62c-1.49-4.73-6.56-7.36-11.29-5.88-.3,.09-1.13,.37-2.29,.87l-.46,.2-.39-.31c-.74-.6-1.46-1.1-2.16-1.48-3.09-1.69-6.59-1.81-9.6-.32-.9,.45-1.72,1-2.41,1.63l-.41,.37-.5-.23c-1.23-.58-2.64-.9-4.18-.94-1.14-.05-2.21,.07-3.31,.35l-1.22,.31,.22-1.24c.17-.96,.18-1.93,.04-2.87-.54-3.64-3.2-6.56-6.78-7.43l-.4-.1-.16-.38c-.25-.59-.56-1.15-.92-1.66-2.49-3.54-7.15-4.8-11.08-3.02l-.45,.21-.39-.31c-2.37-1.87-5.22-2.84-8.1-2.73-1.73,.07-3.45,.53-5.1,1.38l-1.55,.79,.37-1.7c.38-1.73,.24-3.52-.4-5.18-1.52-3.9-5.47-6.22-9.62-5.65l-1,.14,.13-1.73c.39-4.95-3.33-9.29-8.27-9.68-2.4-.18-4.72,.57-6.55,2.13-1.83,1.56-2.94,3.74-3.13,6.14-.26,3.28-.44,6.54-.54,9.71l-.02,.53-.49,.2c-4.55,1.83-6.8,7.04-5.03,11.6,.14,.36,.32,.7,.5,1.04l1.07,1.97c-2.99-1.71-6.81-2.77-10.31-2.77-2.25,0-4.36,.43-6.2,1.2l.39-.78c3.02-6.01,2.39-11.28,1.98-13.27-1.23-5.98-5.48-10.66-10.56-11.64-3.46-.77-8.76-.8-14.48,3.36-1.64,1.19-3.25,2.71-4.79,4.51l-.59,.69-.63-.65c-.85-.88-1.85-1.57-2.99-2.05-1.12-.47-2.31-.71-3.49-.71s-2.3,.22-3.39,.67c-2.23,.91-3.97,2.63-4.9,4.84C-1.54,24.87-.23,33.77,5.3,39.98l.28,.32-.1,.42c-.91,3.86-1.51,7.61-1.78,11.13-.97,12.62,6.76,19.56,11.47,21.67l1.31,.54-.47,.94c-9.31,11.24-6.77,19.6-5.25,22.67,2.62,5.27,8.18,8.42,14.89,8.42,.83,0,1.68-.05,2.52-.14,.35-.04,.71-.1,1.05-.18,2.99-.7,7.36-2.35,11.27-6.22l.52-.51,.57,.45c1.61,1.28,3.55,1.96,5.6,1.96,2.92-.02,5.64-1.42,7.32-3.75l.3-.42,1.67-2.41c1.52,3.03,4.39,5.08,7.69,5.08,2.23,0,4.65-.93,6.63-2.45-.27,1.25-.24,2.59,.15,3.9,1.24,4.18,5.63,6.57,9.82,5.34l75.88-22.42c4.18-1.24,6.57-5.63,5.34-9.82h0c-.71-2.41-2.48-4.22-4.65-5.09,3.46-2.49,5.46-6.69,5.35-11.28v-.52s.45-.23,.45-.23c3.99-1.98,5.91-6.51,4.57-10.77Z"/>
  <path class="cls-1" d="M91.07,94.25c-.9,.27-1.35,1.18-.95,2.52s1.28,1.86,2.18,1.59c.9-.27,1.35-1.18,.95-2.52-.4-1.34-1.28-1.86-2.18-1.59Zm1.02,3.42c-.48,.14-.94-.18-1.22-1.12-.28-.95-.08-1.47,.41-1.61s.94,.18,1.23,1.12c.28,.95,.07,1.47-.41,1.61Zm-7.23-7.27c-.14-.49-.44-.76-.89-.8,.21-.21,.27-.53,.18-.86-.21-.71-.76-.96-1.47-.75l-1.36,.4,1.19,4.03,1.39-.41c.83-.24,1.2-.83,.97-1.61Zm-2.59-1.54l.55-.16c.33-.1,.52-.02,.62,.29s-.03,.48-.34,.58l-.57,.17-.26-.88Zm1.35,2.48l-.57,.17-.32-1.08,.57-.17c.45-.13,.71,0,.81,.35,.1,.35-.04,.6-.49,.73Zm4.46-4.95l-.3,1.98-1.33-1.5-.8,.24,2.03,2.16,.44,1.48,.69-.2-.44-1.48,.53-2.92-.81,.24Zm-1.05,9.11l.57,2.58-1.11-1.59-.46,.14-.06,1.94-.95-2.47-.71,.21,1.59,3.91,.68-.2,.09-2.08,1.1,1.72,.79-.24-.82-4.14-.71,.21Zm-14.31-30.2c-.45-.05-.88,.06-1.18,.3-.24,.2-.39,.47-.43,.77-.03,.3,.06,.6,.26,.85,.24,.3,.64,.49,1.09,.54,.07,0,.14,.01,.21,.01,.38,0,.72-.11,.98-.32,.24-.2,.39-.47,.43-.77,.03-.3-.06-.6-.26-.85-.24-.3-.64-.49-1.09-.54Zm5.31,32.89l-.06,4.4,.77-.23v-1.02s1.24-.37,1.24-.37l.56,.85,.77-.23-2.47-3.64-.82,.24Zm.71,2.4v-1.51s.83,1.27,.83,1.27l-.83,.25Zm-5.79-56.31h0c-1.04,.19-4.62,.85-7.18,1.47-.54,.13-.87,.67-.74,1.21,.11,.46,.52,.77,.97,.77,.08,0,.16,0,.23-.03,2.51-.6,6.05-1.26,7.07-1.45,.48-.09,.88-.51,.88-1,0-.64-.65-1.12-1.24-.97Zm32.05,10.28c-.24,.2-.39,.47-.43,.78-.07,.71,.51,1.3,1.36,1.39,.07,0,.14,0,.2,0,.38,0,.73-.11,.99-.32,.24-.2,.4-.47,.42-.77,.03-.3-.06-.61-.26-.85-.24-.3-.65-.5-1.11-.55-.46-.05-.89,.07-1.19,.31Zm3.47-12.84c.11,.46,.52,.78,.97,.78,.07,0,.15,0,.22-.03,2.89-.66,7.54-1.56,8.15-1.6,.55-.04,.97-.52,.93-1.07-.04-.55-.52-.96-1.07-.93-.83,.06-5.75,1.03-8.45,1.65-.54,.12-.88,.66-.75,1.2Zm-38.99-14.98c.12,0,.24-.02,.36-.07l4.65-1.8c.58,12.06,2.94,20.83,6.47,22.44,.38,.17,.75,.25,1.12,.25,2.46,0,4.76-3.58,7.31-7.93,.91,3.13,3.43,5.3,6.45,5.55,.2,.02,.45,.03,.75,.03,2.12,0,6.51-.66,8.57-5.78,.43-1.08,.64-2.14,.68-3.14,2.29-.73,4.78-2.01,7.28-3.76,.45-.32,.56-.94,.24-1.39-.32-.45-.94-.56-1.39-.24-2.29,1.61-4.42,2.69-6.29,3.34-.25-1.28-.75-2.39-1.34-3.22-1.08-1.54-2.55-2.39-4.05-2.33-1.88,.07-3.69,1.54-4.12,3.33-.19,.8-.36,2.81,2.23,4.26,1.38,.77,3.24,.93,5.38,.53-.08,.6-.23,1.23-.49,1.87-1.78,4.45-5.71,4.64-7.3,4.5-2.21-.18-4.06-1.83-4.72-4.21-.56-2.04-.23-4.88,2.38-6.74,.45-.32,.55-.95,.23-1.4-.32-.45-.94-.55-1.4-.23-1.94,1.38-3.1,3.38-3.37,5.58-.03,.04-.07,.07-.1,.11l-.58,.99c-2.18,3.75-5.17,8.87-6.66,8.19-2.33-1.06-4.81-8.7-5.35-21.37l11-4.27c.52-.2,.77-.78,.57-1.29-.2-.52-.78-.77-1.29-.57l-10.35,4.02c-.1-4.37,.01-9.28,.44-14.68,.04-.55-.37-1.03-.92-1.08-.55-.04-1.03,.37-1.08,.92-.43,5.51-.55,10.79-.41,15.6l-5.29,2.05c-.52,.2-.77,.78-.57,1.29,.15,.4,.53,.64,.93,.64Zm29.9,7.8c-.71-.4-1.5-1.08-1.27-2.05,.22-.93,1.26-1.76,2.25-1.8,.02,0,.04,0,.06,0,.77,0,1.62,.55,2.27,1.48,.47,.66,.87,1.56,1.04,2.61-1.93,.41-3.45,.27-4.36-.24Zm-37.21,20.51c-.25-.21-.49-.3-.71-.33-.5-.18-1.02-.12-1.49,.17-2.39,1.5-3.2,11.24-3.41,20.5-3.25-15.19-5.07-16.43-5.94-16.5-.56-.17-1.11-.09-1.58,.22-2.03,1.35-2.14,7.21-2.21,21.52-.02,3.27-.03,6.85-.09,10.7,0,.55,.43,1.01,.99,1.01,.56,.03,1.01-.43,1.01-.99,.05-3.86,.07-7.45,.09-10.72,.05-9.59,.09-18.66,1.26-19.81,.04,.02,.08,.03,.13,.04,1.39,1.46,4.28,13.65,6.32,24.8,.09,.51,.57,.87,1.08,.82,.52-.05,.91-.49,.9-1.01-.25-19.09,1.31-27.66,2.42-28.81,1.56,2.22,3.06,20.76,3.71,28.75,.27,3.29,.48,5.88,.63,7.06,.06,.5,.5,.87,.99,.87,.04,0,.08,0,.13,0,.55-.07,.93-.57,.87-1.12-.15-1.14-.35-3.71-.62-6.97-1.49-18.4-2.65-28.66-4.48-30.2Zm-7.83-3.42c2.73-1.58,4.83-4.38,5.11-6.82,.04-.37,.06-.73,.06-1.09,4.27-1.62,6.84-4.03,6.98-4.16,.4-.38,.42-1.01,.04-1.41-.38-.4-1.01-.42-1.41-.04-.03,.03-2.23,2.09-5.9,3.58-.36-1.24-1.03-2.32-1.96-3.05-1.26-1-2.82-1.25-4.4-.68-2.34,.84-3.19,3-2.81,4.62,.32,1.34,1.62,2.79,4.25,2.46,1.13-.14,2.2-.37,3.2-.64,0,.07-.01,.13-.02,.2-.18,1.56-1.66,3.89-4.13,5.32-1.46,.85-3.74,1.64-6.32,.53-1.26-.44-2.16-1.84-2.34-3.64-.21-2.06,.6-4.86,3.46-6.57,.47-.28,.63-.9,.35-1.37-.28-.47-.9-.63-1.37-.35-3.67,2.19-4.69,5.82-4.43,8.49,.26,2.58,1.66,4.62,3.6,5.31,1.06,.45,2.17,.68,3.29,.68,1.59,0,3.21-.45,4.75-1.34Zm-.3-8.59c-1.12,.14-1.88-.2-2.05-.94-.18-.77,.29-1.83,1.54-2.27,.33-.12,.65-.18,.97-.18,.55,0,1.06,.18,1.51,.54,.62,.49,1.07,1.26,1.31,2.16-1.01,.3-2.11,.55-3.27,.69Zm-10.7,18.67c-1.09,.65-2.17,1.31-3.24,2,.18-9.5-.78-18.2-1.77-22.04,0,0,0-.01-.01-.02-.03-.11-.08-.22-.15-.32-.02-.03-.05-.05-.07-.07-.04-.04-.07-.09-.12-.13-.02-.01-.04-.02-.06-.03-.04-.03-.08-.05-.12-.07-.07-.03-.14-.06-.21-.07-.04-.01-.08-.02-.12-.03-.11-.01-.23,0-.34,.02,0,0,0,0,0,0-.01,0-.02,.01-.04,.02-.07,.02-.15,.05-.22,.09l-9.17,5.38c-.48,.28-.63,.89-.36,1.37,.28,.48,.89,.64,1.37,.36l6.92-4.06c-.74,2.2-1.95,5.55-3.45,8.65-4.09,8.46-8.46,11.81-12.97,9.97-.25-.12-6.21-2.94-5.54-11.67,.34-4.42,1.35-9.45,2.87-14.32,3.69,1.22,8.1,.74,12.57-1.51,11.03-6.72,11.28-13.75,10.87-16.46-.45-3.01-2.33-5.51-4.59-6.08-2.71-.66-5.45,0-8.14,1.96-4.94,3.59-9.13,11.15-11.93,19.34-.66-.38-1.28-.84-1.85-1.37-3.46-3.24-4.38-8.45-2.34-13.29,.21-.51-.02-1.1-.53-1.31-.51-.21-1.1,.02-1.31,.53-2.37,5.61-1.26,11.71,2.82,15.52,.79,.74,1.66,1.36,2.58,1.85-1.59,5.1-2.64,10.35-3,14.96-.78,10.17,6.41,13.51,6.74,13.66,.95,.39,2.01,.64,3.16,.64,3.6,0,8.03-2.53,12.41-11.58,1.3-2.7,2.38-5.53,3.14-7.7,.71,4.79,1.15,11.82,.9,19.16-4.33,2.94-8.71,6.42-14.05,11.11-7.87,6.91-9.25,14.39-7.14,18.74,1.33,2.74,3.91,4.25,7.15,4.25,.69,0,1.41-.07,2.16-.21,9.95-2.74,13.32-18.32,13.89-32.84,1.43-.95,2.86-1.84,4.33-2.71,.48-.28,.63-.89,.35-1.37-.28-.47-.89-.63-1.37-.35ZM28.42,16.27c2.2-1.6,4.38-2.15,6.48-1.64,1.26,.32,2.72,1.95,3.1,4.44,.35,2.31,.07,8.36-9.86,14.41-3.92,1.97-7.79,2.41-10.98,1.35,2.71-7.96,6.72-15.25,11.26-18.55Zm-2.72,80.77c-3.27,.61-5.84-.47-7.06-2.97-1.79-3.67-.42-10.15,6.66-16.37,4.77-4.19,8.75-7.39,12.62-10.11-.75,13.44-3.95,27.16-12.22,29.44Zm81.57-7.58l.57,2.58-1.11-1.59-.46,.14-.06,1.94-.95-2.47-.71,.21,1.59,3.91,.68-.2,.09-2.07,1.1,1.72,.79-.24-.82-4.14-.71,.21Zm32.48-18.34l-.3,1.98-1.33-1.5-.81,.24,2.03,2.17,.44,1.48,.69-.2-.44-1.48,.52-2.92-.8,.24Zm.99,11.96l-.79-2.64,.85-.25-.21-.69-2.45,.73,.21,.69,.85-.25,.79,2.64-.85,.25,.21,.69,2.45-.73-.21-.69-.85,.25Zm-5.34-7.32l.56,.85,.77-.23-2.46-3.65-.82,.24-.08,4.4,.77-.23v-1.02s1.25-.37,1.25-.37Zm-1.24-1.9l.83,1.27-.83,.24v-1.51Zm-3.46,10.31l-1.48,.44-.25-.83,1.76-.53-.22-.75-2.51,.75,1.2,4.02,.75-.22-.52-1.75,1.48-.44-.21-.69Zm-.24-9.06c-.2-.69-.78-1.01-1.56-.78l-1.47,.43,1.19,4.03,.75-.22-.51-1.74,.39-.12,1.59,1.42,.83-.25-1.65-1.47c.44-.29,.59-.77,.43-1.3Zm-1.08,.81l-.73,.21-.27-.91,.72-.21c.29-.09,.51,0,.61,.32,.09,.32-.04,.51-.34,.59Zm-31.58,17.61c-.21-.69-.78-1.01-1.57-.78l-1.46,.44,1.2,4.02,.75-.22-.52-1.74,.39-.12,1.6,1.41,.83-.25-1.65-1.47c.44-.29,.59-.77,.43-1.3Zm-1.08,.82l-.72,.22-.27-.91,.72-.22c.29-.09,.51,0,.61,.31,.09,.31-.04,.51-.34,.59Zm48.2-12.52l-.33-1.11,1.52-.45-.21-.69-1.52,.45-.25-.84,1.8-.54-.21-.69-2.55,.76,1.2,4.02,2.61-.78-.21-.69-1.86,.56Zm12.97-32.55c-.16-.53-.72-.83-1.24-.67-.15,.04-3.43,1.05-7.01,3.63-1.66-2.31-3.76-4.58-5.34-5.55-.21-.13-.86-.52-1.51-.17-.71,.38-.74,1.13-.79,2.36-.05,1.16-.12,3.09-.67,5.88-.72,3.94-1.87,7.68-2.52,8.24-.04,.02-.08,.03-.12,.05-.13,.07-.17,.05-.19,.05-.08-.03-.78-.43-1.52-3.49-.23-.95-.39-2.21-.57-3.54-.52-3.97-1.01-7.71-3.5-7.82-.68-.03-1.69,.03-2.6,.9-1.13,1.07-2.28,3.36-2.74,11.37-.48-1.93-1-4.04-1.48-6.02-.62-2.64-2.29-3.53-3.65-3.46-1.7,.07-3.15,1.44-3.72,3.42-1.2-.03-2.15,.51-2.2,.54-.01,0-.03,.02-.04,.03-1.91,1.27-3.01,3.69-3.35,6.21-1.03,4.91-2.66,10.34-3.61,11.1-.09,0-.17,.03-.25,.05-.13,.05-.16,.03-.18,.01-1.08-.68-1.62-6.05-2.16-11.24l-.11-1.06c-.05-.49-.44-.86-.93-.9-.49-.02-.93,.29-1.04,.77-.03,.12-2.89,12.02-6.74,16.96-.93,1.2-1.47,.95-1.67,.86-.72-.34-1.43-1.35-2.07-2.78,1.91-3.9,3.85-9.89,3.51-17.79-.15-3.61-1.36-5.86-3.24-6.02-1.97-.19-3.66,2.13-4.51,6.15-.92,4.32-.04,12.35,2.04,17.56-.04,.09-.09,.17-.13,.25-2.05,3.79-3.75,4.65-4.82,4.72-1.36,.09-2.2-1.08-2.29-1.21-.44-.62-.83-1.25-1.19-1.9,2.25-5.25,3.22-11.6,2.69-17.78-.35-4.09-1.74-6.56-3.73-6.59h-.04c-2,0-3.49,2.43-3.98,6.52-.31,2.52-.89,10.53,2.84,17.93-.18,.38-.37,.76-.56,1.13-1.85,3.51-3.29,4.06-4,4.06h-.03c-.92-.02-1.67-.93-2.03-1.69-.77-1.65-1.27-6.69-1.4-8.49-.04-.51-.45-.91-.95-.93-.48-.02-.95,.34-1.03,.84,0,.05-.82,4.96-3.32,8.2-.34,.44-.26,1.06,.18,1.4,.44,.34,1.07,.26,1.4-.18,.99-1.28,1.73-2.75,2.29-4.14,.25,1.61,.58,3.21,1.02,4.14,.63,1.35,1.96,2.8,3.79,2.85,.03,0,.06,0,.08,0,2.03,0,3.96-1.71,5.74-5.09,.19,.29,.38,.59,.58,.88,.75,1.07,2.21,2.17,4.05,2.06,2.08-.12,4.06-1.72,5.89-4.76,.7,1.2,1.49,2.08,2.36,2.49,.81,.38,2.43,.7,4.1-1.44,2.44-3.13,4.44-8.6,5.69-12.64,.59,5.03,1.17,7.66,2.63,8.58,.37,.23,.95,.45,1.72,.24,.72,0,2.2-.58,4.06-7.24,.68,1.57,1.73,2.63,3.02,3.03,.36,.11,.72,.17,1.09,.17,.85,0,1.7-.29,2.47-.87,2.54-1.89,3.13-5.93,2.91-8.19-.3-3.13-1.2-5.19-2.65-6.16,.36-1.29,1.2-2,1.9-2.03,.71,0,1.33,.69,1.62,1.93,1.4,5.9,3.24,12.89,3.25,12.96,.12,.44,.52,.75,.97,.75,.04,0,.08,0,.13,0,.5-.06,.87-.49,.87-.99,.06-9.92,.83-15.66,2.31-17.07,.3-.28,.6-.37,1.14-.35,.81,.04,1.38,4.43,1.6,6.08,.18,1.39,.35,2.71,.61,3.76,.69,2.84,1.51,4.33,2.65,4.84,.42,.19,1.09,.32,1.89-.08,1.73-.72,2.98-5.66,3.72-9.71,.57-2.93,.65-4.96,.7-6.18,0,0,0-.02,0-.03,1.28,1.04,2.82,2.81,4.06,4.55-2.6,2.25-4.03,4.76-3.85,6.8,.11,1.28,.82,2.31,2.04,2.98,1.24,.7,2.79,.59,4.06-.27,1.61-1.1,2.37-3.16,2.04-5.53-.12-.88-.73-2.16-1.59-3.56,3.32-2.41,6.43-3.37,6.47-3.38,.53-.16,.83-.72,.67-1.25Zm-75.33,25.04c-2.65-6.41-2.16-12.98-1.9-15.16,.45-3.64,1.62-4.76,2-4.76h0c.43,0,1.47,1.22,1.77,4.76,.45,5.22-.23,10.55-1.88,15.15Zm10.83-2c-1.37-4.53-2.1-10.77-1.29-14.55,.73-3.45,1.91-4.57,2.36-4.57,0,0,.01,0,.02,0,.39,.03,1.28,1.11,1.41,4.11,.27,6.35-1,11.39-2.5,15.01Zm27.9-10.89c.14,1.47-.19,4.96-2.12,6.4-.41,.31-1.05,.62-1.77,.4-.82-.26-1.54-1.15-1.98-2.44-.43-1.27-.52-2.72-.34-4.11,.04-.18,.07-.35,.11-.54,.01-.05,0-.1,0-.15,.36-1.84,1.2-3.47,2.36-4.27,.14-.07,1.02-.5,1.81-.09,.99,.51,1.67,2.22,1.92,4.8Zm27.87-.09c-.63,.43-1.39,.5-1.96,.18-.63-.35-.96-.81-1.02-1.41-.12-1.32,1.04-3.21,2.98-4.95,.65,1.07,1.1,2.01,1.18,2.58,.23,1.62-.21,2.93-1.19,3.6Zm5.09,14.07l-1.13,.34,1.2,4.02,1.13-.34c1.05-.31,1.74-1.23,1.33-2.59-.41-1.36-1.48-1.75-2.53-1.43Zm1.71,2.79c-.19,.28-.45,.46-.77,.56l-.32,.1-.79-2.64,.32-.1c.33-.1,.64-.08,.95,.04,.31,.13,.53,.43,.68,.91,.14,.48,.12,.86-.07,1.13Zm-5.8-1.57l.77,2.58-2.13-2.18-.69,.21,1.2,4.02,.69-.21-.77-2.57,2.13,2.17,.69-.21-1.2-4.02-.69,.21Zm-14.2,5.49c-.21-.69-.78-1.01-1.57-.78l-1.46,.44,1.2,4.02,.75-.22-.52-1.74,.39-.12,1.6,1.41,.83-.25-1.65-1.47c.44-.29,.59-.77,.43-1.3Zm-1.08,.82l-.72,.22-.27-.91,.72-.22c.29-.09,.51,0,.61,.31,.09,.31-.04,.51-.34,.59Zm-32.33,7.92l-.9,.27-.71,1.84-.45-1.5-.75,.22,1.2,4.02,.75-.22-.57-1.91,1.82,1.53,.91-.27-2.18-1.78,.87-2.21Zm9.25,.86l-.33-1.11,1.52-.45-.21-.69-1.52,.45-.25-.84,1.8-.54-.21-.69-2.55,.76,1.2,4.02,2.61-.78-.21-.69-1.86,.56Zm13.59-15.12c-.2-.69-.78-1.01-1.56-.78l-1.47,.43,1.19,4.03,.75-.22-.51-1.74,.39-.12,1.59,1.42,.83-.25-1.65-1.47c.44-.29,.59-.77,.43-1.3Zm-1.08,.81l-.72,.21-.27-.91,.72-.21c.29-.09,.51,0,.61,.32,.09,.32-.04,.51-.34,.59Zm-27.46,9.74l.56,.85,.77-.23-2.46-3.65-.82,.24-.08,4.4,.77-.23v-1.02s1.25-.37,1.25-.37Zm-1.24-1.9l.83,1.27-.83,.24v-1.51Zm6.42-1.75c-.2-.69-.78-1.01-1.56-.78l-1.47,.43,1.19,4.03,.75-.22-.51-1.74,.39-.12,1.59,1.42,.83-.25-1.65-1.47c.44-.29,.59-.77,.43-1.3Zm-1.08,.81l-.72,.21-.27-.91,.73-.21c.29-.09,.51,0,.61,.32,.09,.32-.04,.51-.34,.59Zm5.11,.38l-.85,.25,.2,.69,2.45-.72-.2-.69-.85,.25-.78-2.65,.85-.25-.2-.69-2.45,.72,.2,.69,.85-.25,.78,2.65Zm14.75-3.99c.18-.35,.2-.78,.05-1.29l-.74-2.5-.75,.22,.74,2.51c.18,.6,.06,.93-.44,1.08-.45,.13-.78-.09-.95-.67l-.74-2.51-.75,.22,.74,2.5c.15,.52,.4,.87,.75,1.06,.34,.19,.73,.22,1.16,.09,.43-.13,.74-.36,.93-.71Zm1.98,4.11l-.9,.27-.71,1.84-.45-1.5-.75,.22,1.2,4.02,.75-.22-.57-1.91,1.82,1.53,.91-.27-2.18-1.78,.87-2.21Zm-6.45-2.4l-1.19-4.03-.71,.21-.23,2.25-1.41-1.76-.71,.21,1.19,4.03,.67-.2-.74-2.49,1.1,1.25,.38-.11,.24-1.65,.74,2.49,.67-.2Zm.53,7.8l-.33-1.11,1.52-.45-.21-.69-1.52,.45-.25-.84,1.8-.54-.21-.69-2.55,.76,1.2,4.02,2.61-.78-.21-.69-1.86,.56Z"/>
</svg>